if (_typeface_js && _typeface_js.loadFace) _typeface_js.loadFace({"glyphs":{"0":{"ha":920,"x_min":140,"x_max":785,"o":"m 454 1219 l 475 1219 q 768 1025 697 1219 q 785 891 785 961 l 785 307 q 585 10 785 87 q 515 0 540 0 l 412 0 q 187 125 276 0 q 140 294 140 201 l 140 920 q 307 1192 140 1116 q 454 1219 365 1219 m 304 930 l 304 304 q 404 165 304 184 l 428 163 l 494 163 q 619 322 619 163 l 619 904 q 543 1043 619 1024 q 462 1056 518 1053 q 304 930 304 1056 z "},"1":{"ha":707,"x_min":137,"x_max":567,"o":"m 142 1221 l 273 1221 q 538 1061 450 1221 q 567 881 567 1000 l 567 5 l 562 0 l 559 0 q 401 121 401 0 l 401 922 q 326 1048 401 1022 q 229 1059 326 1055 q 137 1166 137 1090 l 137 1216 l 142 1221 z "},"2":{"ha":916,"x_min":140,"x_max":782,"o":"m 145 1219 l 478 1219 q 761 1046 683 1219 q 782 936 782 984 l 782 901 q 357 163 782 674 l 357 160 l 664 160 q 777 81 744 160 l 782 58 l 782 5 l 777 0 l 247 0 q 142 87 172 0 l 140 121 q 315 382 140 172 q 619 928 619 753 q 478 1056 619 1056 l 252 1056 q 142 1148 165 1056 l 140 1171 l 140 1213 l 145 1219 z "},"3":{"ha":920,"x_min":139,"x_max":785,"o":"m 144 1221 l 478 1221 q 759 1050 683 1221 q 783 922 783 993 l 783 667 q 756 593 783 631 q 785 494 785 571 l 785 328 q 583 13 785 78 q 488 0 536 0 l 257 0 q 142 92 168 0 l 139 118 l 139 157 l 144 163 l 494 163 q 614 262 583 163 l 620 318 l 620 488 q 581 515 620 515 l 473 515 q 347 604 376 515 l 344 635 l 344 673 l 349 677 l 578 677 q 620 707 620 677 l 620 920 q 528 1050 620 1019 q 460 1059 505 1059 l 250 1059 q 142 1148 168 1059 l 139 1169 l 139 1216 l 144 1221 z "},"4":{"ha":923,"x_min":139,"x_max":785,"o":"m 625 1221 l 654 1221 q 785 1082 785 1221 l 785 5 l 780 0 l 730 0 q 625 90 655 0 l 620 134 l 620 528 l 470 528 q 147 751 203 528 l 139 819 l 139 1213 l 144 1219 l 194 1219 q 299 1135 269 1219 l 304 1082 l 304 972 l 302 819 q 368 707 302 745 q 452 691 406 691 l 620 691 l 620 1216 l 625 1221 z "},"5":{"ha":923,"x_min":139,"x_max":785,"o":"m 278 1221 l 777 1221 l 783 1216 l 783 1177 q 693 1061 783 1090 l 648 1056 l 302 1056 l 302 694 l 307 688 l 501 688 q 762 507 690 688 q 785 381 785 449 l 785 336 q 614 26 785 98 q 481 0 549 0 l 144 0 l 139 5 l 139 52 q 229 157 139 127 l 265 163 l 475 163 q 617 276 597 163 l 620 302 l 620 391 q 543 515 620 483 q 488 526 508 526 l 271 526 q 149 593 182 526 q 139 638 139 620 l 139 1108 q 220 1213 139 1182 q 278 1221 240 1221 z "},"6":{"ha":923,"x_min":139,"x_max":783,"o":"m 444 1221 l 777 1221 l 783 1216 l 783 1169 q 701 1061 783 1091 l 677 1059 l 460 1059 q 328 1008 355 1059 q 304 922 304 972 l 304 694 l 478 694 q 759 520 681 694 q 783 412 783 459 l 783 300 q 606 24 783 101 q 467 0 537 0 l 441 0 q 155 208 224 0 q 139 310 139 254 l 139 932 q 331 1206 139 1138 q 444 1221 388 1221 m 304 530 l 304 397 l 302 297 q 359 181 302 225 q 441 163 388 163 l 475 163 q 617 271 594 163 l 620 310 l 620 386 q 515 526 620 505 l 486 528 l 310 528 l 307 530 l 304 530 z "},"7":{"ha":916,"x_min":117,"x_max":780,"o":"m 656 1219 q 780 1106 780 1206 l 780 1088 q 339 107 780 1027 q 184 0 281 0 l 117 0 q 593 1054 143 68 l 591 1056 l 253 1056 q 140 1153 169 1056 l 135 1216 l 138 1219 l 656 1219 z "},"8":{"ha":920,"x_min":140,"x_max":785,"o":"m 422 1221 l 457 1221 q 692 1145 612 1221 q 785 920 785 1057 l 785 818 q 701 608 785 691 q 785 391 785 522 l 785 294 q 604 21 785 94 q 473 0 536 0 l 444 0 q 163 176 233 0 q 140 291 140 241 l 140 393 q 221 611 140 519 q 140 815 140 716 l 140 930 q 300 1195 140 1107 q 422 1221 370 1221 m 304 907 l 304 842 q 383 703 304 732 q 439 692 414 692 l 480 692 q 614 797 582 692 q 622 881 622 829 l 622 925 q 454 1059 622 1059 l 444 1059 q 313 975 338 1059 q 304 907 304 952 m 304 367 l 304 312 q 465 160 304 160 q 614 264 582 160 q 622 354 622 303 l 622 396 q 452 530 622 530 l 446 530 q 310 440 337 530 l 304 367 z "},"9":{"ha":918,"x_min":140,"x_max":782,"o":"m 475 1219 q 766 1017 693 1219 q 782 918 782 970 l 782 262 q 635 31 782 115 q 501 0 558 0 l 145 0 l 140 5 l 140 39 q 210 155 140 123 q 258 163 239 163 l 488 163 q 612 243 583 163 l 619 304 l 619 524 l 483 524 q 189 652 262 524 q 140 825 140 728 l 140 897 q 318 1195 140 1122 q 475 1219 393 1219 m 302 886 l 302 844 q 389 697 302 725 q 457 689 414 689 l 619 689 l 619 915 q 546 1046 619 1011 q 501 1054 522 1054 l 433 1054 q 307 951 334 1054 l 302 886 z "}," ":{"ha":345,"x_min":0,"x_max":0,"o":""},"!":{"ha":438,"x_min":140,"x_max":298,"o":"m 144 1221 l 190 1221 q 298 1106 285 1221 l 298 336 l 292 330 l 252 330 q 142 423 170 330 l 140 458 l 140 1217 l 144 1221 m 144 228 l 175 228 q 292 153 263 228 l 298 120 l 298 5 l 292 0 l 255 0 q 144 85 172 0 l 140 127 l 140 222 l 144 228 z "},"\"":{"ha":704,"x_min":137,"x_max":563,"o":"m 142 1221 l 194 1221 q 305 1132 275 1221 l 308 1107 l 308 777 l 302 771 l 273 771 q 137 915 137 771 l 137 1216 l 142 1221 m 397 1221 l 449 1221 q 560 1132 528 1221 l 563 1102 l 563 777 l 557 771 l 517 771 q 397 861 427 771 l 392 907 l 392 1216 l 397 1221 z "},"#":{"ha":1423,"x_min":137,"x_max":1284,"o":"m 609 1147 q 707 1085 679 1147 l 715 1034 q 669 803 715 1010 l 671 800 l 829 800 l 902 1145 l 905 1147 l 940 1147 q 1038 1069 1013 1147 l 1040 1031 q 994 803 1029 954 l 997 800 l 1152 800 q 1282 716 1242 800 l 1284 697 l 1284 643 l 1279 637 l 959 637 l 932 510 l 1122 510 q 1274 439 1239 510 q 1284 399 1284 422 l 1284 350 l 1279 345 l 897 345 l 823 0 l 780 0 q 688 100 701 0 l 688 125 q 731 345 688 144 l 571 345 l 498 0 l 454 0 q 359 114 370 0 q 406 345 362 147 l 289 345 q 145 423 179 345 q 137 467 137 441 l 137 505 l 142 510 l 441 510 l 468 637 l 281 637 q 137 743 159 637 l 137 795 l 142 800 l 503 800 l 576 1145 l 579 1147 l 609 1147 m 633 637 l 606 510 l 766 510 l 793 637 l 633 637 z "},"$":{"ha":848,"x_min":140,"x_max":718,"o":"m 354 1221 l 387 1221 q 486 1160 456 1221 q 496 1113 496 1137 l 496 1066 l 713 1066 l 718 1061 l 718 1014 q 642 922 718 949 l 621 920 l 453 920 q 317 868 342 920 q 288 778 288 823 q 387 686 288 686 q 689 493 606 686 q 718 354 718 419 l 718 271 q 562 -2 718 69 q 496 -21 532 -14 l 496 -179 l 491 -184 l 456 -184 q 352 -106 378 -184 l 349 -87 l 349 -24 l 144 -24 l 140 -19 l 140 17 q 250 123 140 110 l 422 123 q 557 205 522 123 q 571 283 571 240 l 571 347 q 435 533 571 498 l 317 547 q 196 613 260 553 q 140 783 140 682 l 140 787 q 302 1044 140 979 l 349 1059 l 349 1217 l 354 1221 z "},"%":{"ha":828,"x_min":134,"x_max":692,"o":"m 144 1221 q 345 1105 298 1221 q 353 1046 353 1080 l 353 821 l 348 812 q 150 907 212 812 q 137 967 137 943 l 137 1216 q 144 1221 137 1221 m 582 1214 l 585 1214 q 687 1095 687 1171 l 687 1085 q 618 900 687 1048 l 237 5 l 235 5 q 134 134 134 51 q 209 334 134 169 l 582 1214 m 484 409 q 677 311 623 409 q 692 227 692 284 l 692 5 l 687 0 l 677 0 q 481 111 534 0 q 473 172 473 143 l 473 401 q 484 409 473 408 z "},"&":{"ha":928,"x_min":139,"x_max":789,"o":"m 437 1219 l 784 1219 l 789 1213 l 789 1190 q 728 1068 789 1099 q 671 1055 699 1055 l 486 1055 q 303 865 303 1055 l 303 722 q 342 671 303 671 l 425 671 l 425 793 l 427 795 l 427 798 q 572 738 539 798 q 589 682 589 710 l 589 362 l 583 357 l 551 357 q 425 473 425 372 l 425 507 l 334 507 q 303 473 303 507 l 303 376 q 377 185 303 224 q 486 161 418 161 l 781 161 l 787 156 l 787 109 q 689 0 787 27 l 443 0 q 150 212 224 0 q 139 294 139 266 l 139 518 q 165 589 139 553 q 139 680 139 623 l 139 888 q 316 1195 139 1120 q 437 1219 385 1219 z "},"'":{"ha":448,"x_min":137,"x_max":308,"o":"m 142 1219 l 191 1219 q 308 1099 293 1219 l 308 774 l 302 768 l 273 768 q 137 909 137 768 l 137 1213 l 142 1219 z "},"(":{"ha":699,"x_min":139,"x_max":557,"o":"m 436 1221 l 550 1221 l 555 1216 l 555 1208 l 557 1174 q 452 1057 557 1092 q 306 911 306 1029 l 306 315 q 417 170 306 205 q 526 125 492 156 q 557 47 557 79 l 555 14 l 555 5 l 550 0 l 409 0 q 179 143 260 0 q 139 315 139 229 l 139 906 q 288 1190 139 1099 q 436 1221 349 1221 z "},")":{"ha":704,"x_min":137,"x_max":566,"o":"m 145 1251 l 251 1251 q 536 1080 463 1251 q 566 890 566 999 l 566 358 q 378 16 566 87 q 283 0 329 0 l 145 0 q 137 16 137 3 l 137 49 q 292 176 137 152 q 395 336 395 217 l 395 914 q 294 1072 395 1032 q 170 1123 189 1093 q 137 1204 137 1158 l 137 1229 q 145 1251 137 1249 z "},"*":{"ha":941,"x_min":134,"x_max":802,"o":"m 392 1222 l 438 1222 q 549 1089 529 1222 l 644 1181 l 647 1181 q 709 1078 709 1131 l 709 1070 q 669 975 709 1025 l 669 970 q 799 880 763 970 l 802 853 l 802 812 l 796 807 l 666 807 q 709 704 709 755 l 709 699 q 647 598 709 648 l 644 598 l 549 690 l 549 560 l 544 555 l 506 555 q 387 682 404 555 l 387 688 l 384 688 l 289 595 q 224 709 224 646 q 267 807 226 753 q 134 918 134 825 l 134 964 l 140 970 l 267 970 l 267 972 q 224 1078 224 1024 q 289 1181 224 1128 l 384 1089 l 387 1089 l 387 1217 l 392 1222 z "},"+":{"ha":941,"x_min":136,"x_max":804,"o":"m 394 849 l 440 849 q 551 713 532 849 l 551 597 l 671 597 q 801 507 765 597 l 804 480 l 804 439 l 798 434 l 551 434 l 551 187 l 546 182 l 508 182 q 389 309 406 182 l 389 434 l 280 434 q 142 513 178 434 l 136 545 l 136 591 l 142 597 l 383 597 l 389 602 l 389 844 l 394 849 z "},",":{"ha":507,"x_min":139,"x_max":372,"o":"m 250 132 q 364 62 332 132 l 372 24 q 283 -125 372 -88 q 201 -139 245 -139 q 139 -90 139 -139 q 191 -44 139 -57 q 201 10 201 -13 l 201 92 q 250 132 210 132 z "},"-":{"ha":938,"x_min":137,"x_max":802,"o":"m 142 604 l 677 604 q 802 500 777 604 l 802 441 l 796 435 l 273 435 q 142 519 172 435 l 137 560 l 137 598 l 142 604 z "},".":{"ha":440,"x_min":136,"x_max":307,"o":"m 204 171 l 245 171 q 307 119 307 171 l 307 57 q 250 0 307 0 l 188 0 q 136 46 151 0 l 136 103 q 204 171 136 171 z "},"/":{"ha":833,"x_min":139,"x_max":699,"o":"m 587 1221 l 595 1221 q 699 1093 699 1172 q 615 869 699 1052 l 245 0 l 243 0 q 139 123 139 49 l 139 140 q 212 330 139 181 l 587 1221 z "},":":{"ha":446,"x_min":137,"x_max":308,"o":"m 142 745 l 194 745 q 308 628 289 745 l 308 506 l 302 500 l 251 500 q 140 604 167 500 l 137 642 l 137 739 l 142 745 m 142 384 l 186 384 q 305 292 275 384 l 308 267 l 308 142 l 302 137 l 273 137 q 145 218 176 137 q 137 275 137 247 l 137 378 l 142 384 z "},";":{"ha":446,"x_min":77,"x_max":308,"o":"m 142 747 l 178 747 q 294 682 264 747 q 308 631 308 654 l 308 506 l 302 500 l 264 500 q 140 601 168 500 l 137 644 l 137 742 l 142 747 m 189 159 q 308 56 308 147 l 308 29 q 191 -106 308 -76 l 140 -112 q 77 -66 77 -112 q 126 -20 77 -27 q 140 45 140 5 l 140 119 q 189 159 148 159 z "},"<":{"ha":642,"x_min":137,"x_max":511,"o":"m 431 848 l 433 848 q 511 747 511 804 l 511 726 q 383 545 511 697 l 289 425 q 508 140 508 150 l 511 116 l 511 101 q 431 0 511 45 l 137 361 l 137 489 q 431 848 420 840 z "},"=":{"ha":941,"x_min":137,"x_max":804,"o":"m 142 678 l 666 678 q 793 605 753 678 q 804 545 804 585 l 804 521 l 799 515 l 267 515 q 137 627 137 534 l 137 673 l 142 678 m 142 431 l 663 431 q 802 336 768 431 l 804 307 l 804 271 l 799 266 l 302 266 q 148 334 185 266 q 137 380 137 361 l 137 426 l 142 431 z "},">":{"ha":647,"x_min":139,"x_max":513,"o":"m 223 848 l 513 492 l 513 359 l 221 0 q 139 106 139 43 q 197 214 139 154 l 361 425 l 361 429 q 144 709 157 679 l 139 745 q 223 848 139 810 z "},"?":{"ha":880,"x_min":137,"x_max":749,"o":"m 142 1221 l 454 1221 q 734 1031 659 1221 q 749 937 749 974 l 749 817 q 637 597 749 693 q 514 545 574 555 l 514 290 l 509 285 l 477 285 q 361 372 394 285 l 357 407 l 357 604 q 434 699 357 677 q 589 817 554 699 l 594 871 l 594 904 q 477 1061 594 1028 l 401 1067 l 239 1067 q 142 1141 170 1067 l 137 1184 l 137 1217 l 142 1221 m 364 224 l 409 224 q 511 145 485 224 q 517 105 517 134 l 517 5 l 511 0 l 469 0 q 364 80 395 0 l 359 125 l 359 220 l 364 224 z "},"@":{"ha":1301,"x_min":134,"x_max":1162,"o":"m 427 1080 l 962 1080 q 1149 944 1095 1080 q 1162 868 1162 907 l 1162 114 q 1070 5 1162 33 q 1035 0 1058 0 l 910 0 q 823 41 854 0 q 661 0 755 0 l 376 0 l 370 5 l 370 513 q 541 762 370 698 q 642 781 593 781 l 945 781 l 951 776 l 951 214 q 994 171 951 171 l 1002 171 l 1005 174 l 1005 838 q 932 911 1005 911 l 490 911 q 302 765 302 911 l 302 5 l 248 5 q 140 90 172 5 l 134 127 l 134 762 q 343 1069 134 990 q 427 1080 399 1080 m 530 157 l 642 157 q 785 228 749 157 q 799 285 799 252 l 799 624 l 669 624 q 530 515 550 624 l 530 157 z "},"A":{"ha":923,"x_min":139,"x_max":787,"o":"m 144 1221 l 501 1221 q 771 1031 701 1221 q 787 939 787 972 l 787 5 l 781 0 l 766 0 q 628 85 651 0 q 620 151 620 103 l 620 436 l 303 436 l 303 8 l 298 3 l 253 3 q 144 87 173 3 l 139 132 l 139 1216 l 144 1221 m 303 1057 l 303 600 l 620 600 l 620 941 q 522 1055 620 1033 l 490 1057 l 303 1057 z "},"B":{"ha":916,"x_min":140,"x_max":782,"o":"m 145 1219 l 475 1219 q 764 1040 686 1219 q 782 964 782 998 l 782 755 q 706 610 782 688 q 782 467 782 542 l 782 275 q 633 34 782 128 q 488 0 566 0 l 145 0 l 140 5 l 140 1213 l 145 1219 m 304 1056 l 304 684 l 452 684 q 616 765 592 690 l 619 791 q 604 996 619 996 q 470 1056 570 1056 l 304 1056 m 304 522 l 304 163 l 483 163 q 616 260 587 163 l 616 419 q 498 519 616 500 l 465 522 l 304 522 z "},"C":{"ha":920,"x_min":140,"x_max":785,"o":"m 460 1221 l 651 1221 q 785 1085 785 1221 l 785 1064 l 779 1059 l 449 1059 q 310 980 340 1059 q 302 873 302 942 l 302 333 q 349 186 302 214 q 433 165 387 165 l 648 165 q 777 92 745 165 l 782 50 l 782 8 l 777 3 l 504 3 l 410 0 q 242 63 337 0 q 140 309 140 144 l 140 936 q 292 1190 140 1105 q 460 1221 355 1221 z "},"D":{"ha":916,"x_min":139,"x_max":784,"o":"m 264 1219 l 467 1219 q 760 1046 688 1219 q 784 899 784 980 l 784 340 q 629 31 784 100 q 479 0 562 0 l 144 0 l 139 5 l 139 1211 l 142 1213 l 142 1216 l 264 1219 m 304 1056 l 304 163 l 479 163 q 606 241 580 163 q 618 333 618 272 l 618 867 q 566 1035 618 1001 q 422 1056 530 1056 l 304 1056 z "},"E":{"ha":918,"x_min":139,"x_max":784,"o":"m 461 1219 l 634 1219 q 784 1082 784 1219 l 784 1061 l 779 1056 l 458 1056 q 323 1001 355 1056 q 302 876 302 962 l 302 692 l 579 692 q 700 613 669 692 l 705 574 l 705 534 l 700 530 l 307 530 l 302 524 l 302 343 q 343 194 302 220 q 446 163 371 163 l 652 163 q 776 84 745 163 l 781 39 l 781 5 l 776 0 l 435 0 q 157 186 235 0 q 139 307 139 243 l 139 915 q 328 1203 139 1125 q 461 1219 378 1219 z "},"F":{"ha":918,"x_min":140,"x_max":782,"o":"m 439 1219 l 777 1219 l 782 1213 l 782 1164 q 671 1056 782 1075 l 494 1056 q 357 1035 383 1056 q 304 925 304 1004 l 304 597 l 698 597 q 706 564 706 597 q 622 440 706 469 q 588 435 610 435 l 304 435 l 304 5 l 300 0 l 250 0 q 145 87 176 0 l 140 123 l 140 922 q 334 1203 140 1129 q 439 1219 372 1219 z "},"G":{"ha":918,"x_min":140,"x_max":782,"o":"m 444 1219 l 777 1219 l 782 1213 l 782 1169 q 667 1056 782 1074 l 459 1056 q 323 998 352 1056 q 302 807 302 981 l 302 357 q 347 189 302 224 q 459 160 396 160 q 619 296 619 160 l 619 435 l 538 435 q 410 509 440 435 q 401 555 401 536 l 401 592 l 407 597 l 648 597 q 774 524 746 597 l 782 485 l 782 5 l 777 0 l 732 0 q 648 39 677 0 l 646 39 q 504 0 579 0 l 439 0 q 161 184 229 0 q 140 319 140 237 l 140 901 q 373 1213 140 1158 l 444 1219 z "},"H":{"ha":914,"x_min":137,"x_max":779,"o":"m 137 1222 l 166 1222 q 300 1131 270 1222 l 302 1101 l 302 787 l 617 787 l 617 1217 l 622 1222 l 646 1222 q 779 1125 753 1222 l 779 5 l 777 3 l 777 0 q 622 76 652 0 l 617 115 l 617 624 l 302 624 l 302 5 l 300 3 l 300 0 q 137 121 137 0 l 137 1222 z "},"I":{"ha":438,"x_min":139,"x_max":304,"o":"m 144 1221 l 168 1221 q 296 1145 264 1221 q 304 1103 304 1128 l 304 5 l 302 3 l 302 0 q 139 131 139 0 l 139 1216 l 144 1221 z "},"J":{"ha":848,"x_min":70,"x_max":712,"o":"m 319 1219 l 597 1216 l 633 1216 q 712 1156 692 1216 l 712 299 q 507 10 712 83 q 416 0 464 0 l 75 0 l 70 5 l 70 45 q 195 163 70 149 l 427 163 q 542 249 516 163 q 549 304 549 273 l 549 1056 l 424 1056 q 316 1153 345 1056 l 313 1177 l 313 1213 l 319 1219 z "},"K":{"ha":916,"x_min":139,"x_max":784,"o":"m 144 1219 l 178 1219 q 302 1122 281 1219 l 302 783 l 448 783 q 593 849 558 783 q 621 980 621 897 l 621 1213 l 627 1219 l 658 1219 q 784 1080 784 1219 l 784 972 q 715 718 784 794 q 781 553 781 644 l 781 5 l 776 0 l 731 0 q 618 121 632 0 l 618 543 q 555 618 618 604 l 535 621 l 302 621 l 302 13 l 296 8 l 252 8 q 149 79 182 8 q 139 128 139 100 l 139 1213 l 144 1219 z "},"L":{"ha":908,"x_min":139,"x_max":781,"o":"m 144 1219 l 176 1219 q 296 1140 269 1219 q 304 1090 304 1124 l 304 317 q 359 178 304 210 q 433 163 393 163 l 658 163 q 779 79 750 163 l 781 52 l 781 5 l 776 0 l 430 0 q 144 231 206 0 l 139 299 l 139 1213 l 144 1219 z "},"M":{"ha":1400,"x_min":139,"x_max":1263,"o":"m 144 1221 l 155 1221 q 273 1182 246 1221 q 475 1221 345 1221 q 701 1137 618 1221 q 911 1221 789 1221 l 964 1221 q 1245 1038 1173 1221 q 1263 899 1263 993 l 1263 5 l 1258 0 l 1224 0 q 1101 94 1128 0 l 1098 134 l 1098 922 q 1032 1043 1098 1018 q 932 1059 998 1059 l 919 1059 q 783 893 783 1059 l 783 5 l 777 0 l 749 0 q 617 134 617 0 l 617 941 q 452 1059 617 1059 q 304 922 304 1059 l 304 165 l 302 3 l 299 0 l 252 0 q 142 87 173 0 l 139 108 l 139 1216 l 144 1221 z "},"N":{"ha":923,"x_min":140,"x_max":783,"o":"m 197 1221 q 284 1185 241 1221 q 463 1221 336 1221 l 465 1221 q 754 1069 680 1221 q 783 935 783 1003 l 783 5 l 778 0 l 741 0 q 621 97 648 0 l 621 901 q 560 1040 621 1013 q 447 1059 526 1059 q 305 911 305 1059 l 305 5 l 300 0 l 260 0 q 142 92 168 0 l 140 118 l 140 1211 q 197 1221 140 1219 z "},"O":{"ha":918,"x_min":139,"x_max":784,"o":"m 454 1219 l 475 1219 q 763 1038 691 1219 q 784 897 784 980 l 784 315 q 564 5 784 67 l 514 0 l 406 0 q 173 144 267 0 q 139 286 139 223 l 139 922 q 288 1185 139 1103 q 454 1219 353 1219 m 304 922 l 304 309 q 364 178 304 212 q 427 163 393 163 l 488 163 q 618 330 618 163 l 618 901 q 545 1043 618 1021 q 461 1056 512 1053 q 304 922 304 1056 z "},"P":{"ha":923,"x_min":139,"x_max":785,"o":"m 144 1221 l 176 1221 q 281 1179 242 1221 q 422 1221 332 1221 l 457 1221 q 675 1164 617 1221 q 777 993 746 1113 l 785 938 l 783 920 l 783 638 q 627 389 783 473 q 452 357 561 357 l 304 357 l 304 5 l 299 0 l 250 0 q 142 97 170 0 l 139 121 l 139 1216 l 144 1221 m 304 909 l 304 517 l 475 520 q 614 620 589 520 l 620 688 l 620 920 q 549 1048 620 1012 q 488 1059 522 1059 l 470 1059 q 313 980 337 1059 q 304 909 304 947 z "},"Q":{"ha":993,"x_min":139,"x_max":854,"o":"m 457 1221 l 468 1221 q 757 1059 685 1221 q 786 913 786 998 l 786 298 q 673 51 786 146 q 768 43 686 47 q 844 -20 822 25 q 854 -88 854 -51 l 854 -112 l 849 -117 l 712 -117 q 478 -1 566 -117 l 408 -1 q 181 132 271 -1 q 139 296 139 210 l 139 916 q 321 1200 139 1129 q 457 1221 376 1221 m 304 922 l 304 319 q 391 167 304 189 l 423 161 l 423 164 l 420 191 l 423 288 l 423 304 q 473 317 433 317 l 486 317 q 586 224 562 317 l 589 203 q 621 322 621 236 l 621 913 q 481 1056 621 1056 l 444 1056 q 304 922 304 1056 z "},"R":{"ha":920,"x_min":139,"x_max":784,"o":"m 144 1219 l 176 1219 q 278 1179 241 1219 l 281 1179 q 422 1219 339 1219 l 456 1219 q 687 1148 630 1219 q 781 941 781 1057 l 781 645 q 700 437 781 524 q 784 178 784 360 l 784 5 l 779 0 l 749 0 q 624 76 656 0 l 618 115 l 618 228 q 527 351 618 322 l 479 357 l 304 357 l 304 5 l 299 0 l 249 0 q 142 97 170 0 l 139 121 l 139 1213 l 144 1219 m 304 915 l 304 522 l 485 522 l 496 519 q 582 555 534 519 q 618 697 618 595 l 618 918 q 519 1054 618 1030 l 488 1056 l 469 1056 q 328 1006 359 1056 q 304 915 304 975 z "},"S":{"ha":920,"x_min":139,"x_max":783,"o":"m 452 1221 l 777 1221 l 783 1216 l 783 1164 q 688 1059 783 1084 l 507 1059 q 323 1001 338 1059 q 304 924 304 975 l 304 909 q 368 796 304 820 q 504 780 383 787 q 699 667 637 746 q 783 425 783 557 l 783 302 q 620 29 783 109 q 491 0 553 0 l 144 0 l 139 5 l 139 47 q 236 160 139 135 l 262 163 l 465 163 q 612 247 587 163 q 620 310 620 280 l 620 412 q 517 602 620 565 q 370 625 473 625 q 218 699 267 648 q 139 903 139 779 l 139 909 q 310 1198 139 1124 q 452 1221 370 1221 z "},"T":{"ha":916,"x_min":139,"x_max":787,"o":"m 244 1221 l 781 1221 l 787 1216 l 787 1168 q 703 1063 787 1094 l 679 1061 l 553 1061 l 553 8 q 500 0 553 0 q 387 113 387 14 l 387 1061 l 195 1061 l 139 1061 l 139 1061 q 223 1216 139 1194 l 244 1221 z "},"U":{"ha":918,"x_min":139,"x_max":784,"o":"m 624 1219 l 663 1219 q 779 1132 749 1219 l 784 1072 l 784 354 q 682 68 784 137 q 469 0 600 0 l 427 0 q 173 146 258 0 q 139 286 139 218 l 139 1211 l 144 1216 l 194 1216 q 299 1135 268 1216 l 304 1095 l 304 299 q 382 170 304 199 l 440 160 q 585 202 543 160 q 618 286 618 237 l 618 1213 l 624 1219 z "},"V":{"ha":941,"x_min":139,"x_max":804,"o":"m 186 1221 q 323 1124 288 1221 l 470 418 l 473 418 q 627 1148 614 1112 q 756 1221 669 1221 l 798 1221 q 804 1213 804 1221 l 546 3 l 543 0 l 507 0 q 359 176 380 0 l 139 1219 l 142 1221 l 186 1221 z "},"W":{"ha":1398,"x_min":137,"x_max":1261,"o":"m 186 1219 q 304 1101 304 1205 l 304 286 q 404 165 304 192 l 441 163 l 473 163 q 595 218 563 163 q 619 304 619 252 l 619 1137 l 625 1143 l 648 1143 q 771 1074 741 1143 q 782 1025 782 1049 l 782 322 q 831 189 782 212 q 923 163 869 163 l 944 163 q 1088 243 1057 163 q 1099 301 1099 265 l 1099 1109 q 1185 1213 1099 1181 l 1253 1219 l 1256 1219 l 1261 1213 l 1261 304 q 1075 18 1261 91 q 962 0 1017 0 l 907 0 q 698 87 791 0 q 496 0 606 0 l 441 0 q 166 165 240 0 q 137 286 145 210 l 140 391 l 140 1211 l 145 1216 l 166 1216 l 186 1219 z "},"X":{"ha":1025,"x_min":136,"x_max":888,"o":"m 715 1219 l 760 1219 q 886 1127 853 1219 l 888 1103 l 888 833 q 791 613 888 702 q 888 422 888 519 l 888 5 l 883 0 l 831 0 q 713 89 745 0 l 710 113 l 710 372 q 631 513 710 485 q 511 534 581 534 q 322 437 349 534 l 317 401 l 317 5 l 312 0 l 260 0 q 136 115 157 0 l 136 406 q 233 613 136 528 q 139 802 139 701 l 139 1211 l 144 1216 l 197 1216 q 315 1127 282 1216 l 317 1101 l 317 836 q 396 710 317 741 q 475 694 420 700 q 666 731 635 694 q 710 842 710 772 l 710 1213 l 715 1219 z "},"Y":{"ha":916,"x_min":135,"x_max":780,"o":"m 620 1219 l 651 1219 q 769 1145 739 1219 q 780 1077 780 1115 l 780 336 q 675 66 780 138 q 505 0 590 0 l 245 0 q 145 71 176 0 q 135 121 135 92 l 135 157 l 140 163 l 468 163 q 604 243 579 163 q 614 296 614 270 l 614 385 q 460 357 552 357 l 447 357 q 156 537 229 357 q 135 648 135 595 l 135 1211 l 140 1216 l 190 1216 q 295 1124 268 1216 l 298 1101 l 298 710 q 355 540 298 572 q 431 519 395 519 l 436 519 q 604 592 569 519 q 614 642 614 618 l 614 1213 l 620 1219 z "},"Z":{"ha":920,"x_min":139,"x_max":784,"o":"m 144 1219 l 645 1219 q 779 1135 749 1219 l 781 1103 q 346 191 781 1014 l 333 163 l 779 163 l 784 157 l 784 139 q 705 5 784 36 l 671 0 l 260 0 q 142 94 178 0 l 139 125 q 590 1056 139 210 l 246 1056 q 144 1132 174 1056 l 139 1164 l 139 1213 l 144 1219 z "},"[":{"ha":572,"x_min":140,"x_max":441,"o":"m 258 1221 l 436 1221 l 441 1216 l 441 1177 q 346 1060 441 1086 l 319 1057 l 304 1057 l 304 167 l 307 167 q 436 85 413 167 l 441 56 q 433 0 441 0 l 275 0 q 148 74 176 0 l 140 114 l 140 1113 q 230 1219 140 1187 l 258 1221 z "},"\\":{"ha":833,"x_min":140,"x_max":700,"o":"m 246 1221 q 697 163 277 1162 l 700 129 q 591 0 700 44 q 140 1067 162 1003 l 140 1098 q 246 1221 140 1173 z "},"]":{"ha":574,"x_min":140,"x_max":441,"o":"m 145 1221 l 325 1221 q 441 1118 415 1221 l 441 124 q 354 5 441 33 l 309 0 l 148 0 q 140 29 140 0 l 140 61 q 232 164 140 137 l 275 167 l 275 1057 l 261 1057 q 142 1145 172 1057 l 140 1166 l 140 1216 l 145 1221 z "},"^":{"ha":995,"x_min":140,"x_max":859,"o":"m 438 1221 l 560 1221 q 859 787 579 1200 l 859 782 q 758 766 779 766 q 587 890 649 766 l 498 1018 q 349 804 392 848 q 240 766 299 766 q 140 787 140 777 l 438 1221 z "},"_":{"ha":682,"x_min":3,"x_max":677,"o":"m 9 -68 l 556 -68 q 677 -161 677 -84 l 677 -201 l 671 -206 l 141 -206 q 9 -137 39 -206 l 3 -104 l 3 -73 l 9 -68 z "},"`":{"ha":694,"x_min":191,"x_max":522,"o":"m 522 731 l 456 731 l 244 852 q 205 882 220 868 q 191 923 191 895 q 205 958 191 941 q 250 974 219 974 q 301 962 279 974 q 349 924 322 949 l 522 731 z "},"a":{"ha":908,"x_min":140,"x_max":772,"o":"m 452 848 l 766 848 l 772 843 l 772 5 l 766 0 l 733 0 q 635 41 671 0 q 467 0 573 0 l 145 0 l 140 5 l 140 562 q 359 841 140 785 q 452 848 397 848 m 302 559 l 302 160 l 462 160 q 612 309 612 160 l 612 686 l 423 686 q 310 616 342 686 q 302 559 302 584 z "},"b":{"ha":941,"x_min":139,"x_max":783,"o":"m 144 1223 l 157 1223 q 292 1165 263 1223 q 304 1115 302 1141 l 302 976 l 302 863 l 481 863 q 768 668 694 863 q 783 576 783 622 l 783 276 q 636 37 783 132 q 499 0 582 0 l 457 0 q 276 39 345 0 l 273 39 q 142 0 245 0 l 139 3 l 139 1217 l 144 1223 m 300 699 l 302 357 l 302 345 q 363 179 302 208 q 457 163 405 163 l 494 163 q 618 279 596 163 l 621 326 l 621 555 q 471 699 621 699 l 300 699 z "},"c":{"ha":903,"x_min":140,"x_max":773,"o":"m 429 848 l 660 848 q 768 773 732 848 l 773 750 l 773 693 l 768 688 l 422 688 q 305 592 333 688 l 300 512 l 300 339 q 365 176 300 199 q 460 160 399 160 l 657 160 q 773 47 773 147 l 773 5 l 768 0 l 435 0 q 165 165 239 0 q 140 311 140 233 l 140 553 q 300 823 140 741 q 429 848 359 848 z "},"d":{"ha":916,"x_min":139,"x_max":783,"o":"m 743 1221 l 777 1221 l 783 1216 l 783 5 l 777 0 l 749 0 q 646 37 687 0 l 641 37 q 470 0 576 0 l 441 0 q 155 197 228 0 q 139 331 139 246 l 139 549 q 302 836 139 758 q 439 861 360 861 l 620 861 l 620 1116 q 699 1216 620 1187 l 743 1221 m 304 570 l 304 315 q 380 174 304 193 q 460 163 418 163 q 606 239 584 163 q 620 339 620 268 l 620 699 l 444 699 q 304 570 304 699 z "},"e":{"ha":911,"x_min":140,"x_max":773,"o":"m 427 848 l 494 848 q 755 662 684 848 q 773 562 773 610 l 773 460 q 688 357 773 386 q 647 352 677 352 l 302 352 l 302 264 q 359 176 302 222 q 450 160 397 160 l 665 160 q 771 73 741 160 l 773 47 l 773 5 l 768 0 l 468 0 q 171 147 243 0 q 140 290 140 214 l 140 515 q 311 825 140 756 q 427 848 364 848 m 302 541 l 302 512 l 613 512 l 613 562 q 520 686 613 655 l 492 688 l 445 688 q 308 610 334 688 l 302 541 z "},"f":{"ha":679,"x_min":140,"x_max":573,"o":"m 423 1221 l 568 1221 l 573 1216 l 573 1171 q 450 1059 573 1081 q 318 993 352 1059 q 305 914 305 953 l 305 785 l 521 785 l 526 780 l 526 746 q 405 623 513 623 l 305 623 l 305 5 l 300 0 l 253 0 q 145 87 177 0 l 140 134 l 140 888 q 311 1198 140 1126 q 423 1221 370 1221 z "},"g":{"ha":886,"x_min":137,"x_max":749,"o":"m 427 848 q 616 811 558 848 q 707 848 656 848 l 717 848 q 749 841 749 848 l 749 -36 q 669 -221 749 -143 q 474 -298 575 -298 l 142 -298 l 137 -294 l 137 -256 q 224 -146 137 -175 l 250 -144 l 439 -144 q 584 -68 566 -144 q 594 -9 594 -43 l 594 54 l 592 54 q 454 26 517 26 q 165 186 233 26 q 137 341 137 252 l 137 559 q 309 829 137 760 q 427 848 374 848 m 294 556 l 294 329 q 370 191 294 214 l 432 184 l 469 184 q 594 336 594 184 l 594 544 l 597 566 q 487 691 597 673 l 429 694 q 294 556 294 694 z "},"h":{"ha":920,"x_min":140,"x_max":786,"o":"m 145 1221 l 176 1221 q 300 1137 271 1221 l 302 1111 l 302 836 q 447 861 376 861 l 458 861 q 760 696 687 861 q 786 581 778 651 l 783 509 l 783 5 l 778 0 l 730 0 q 623 97 650 0 l 621 132 l 621 559 q 479 699 621 699 q 332 652 351 699 q 302 547 302 610 l 305 544 l 302 530 l 302 5 l 297 0 l 250 0 q 145 87 177 0 l 140 123 l 140 1216 l 145 1221 z "},"i":{"ha":440,"x_min":140,"x_max":302,"o":"m 145 1223 l 189 1223 q 300 1136 272 1223 l 302 1113 l 302 994 l 297 989 l 281 989 q 140 1120 140 989 l 140 1218 l 145 1223 m 145 848 l 178 848 q 294 774 267 848 q 302 720 302 747 l 302 5 l 297 0 l 274 0 q 150 72 178 0 q 140 132 140 96 l 140 843 l 145 848 z "},"j":{"ha":570,"x_min":0,"x_max":420,"o":"m 373 1221 l 416 1221 l 420 1216 l 420 1121 q 346 1002 420 1031 q 276 994 320 994 l 269 994 l 264 999 l 264 1109 q 373 1221 277 1221 m 401 851 l 416 851 l 420 846 l 420 -15 q 224 -283 420 -214 q 149 -294 177 -294 l 5 -294 l 0 -289 l 0 -267 q 154 -137 0 -137 q 256 -67 222 -137 q 267 -5 267 -35 l 267 744 q 361 848 267 821 l 401 851 z "},"k":{"ha":920,"x_min":137,"x_max":787,"o":"m 142 1221 l 187 1221 q 298 1137 270 1221 l 301 1113 l 301 532 l 306 526 l 460 526 q 597 585 566 526 q 621 709 621 635 l 621 751 q 711 865 621 835 l 764 870 l 782 870 l 787 865 l 787 722 q 713 457 787 528 l 700 441 q 782 277 756 392 l 787 164 l 787 5 l 782 0 l 755 0 q 623 90 652 0 l 621 119 l 621 198 q 563 341 621 309 q 473 359 522 359 l 301 359 l 301 8 l 296 3 l 251 3 q 142 87 171 3 l 137 124 l 137 1216 l 142 1221 z "},"l":{"ha":704,"x_min":140,"x_max":570,"o":"m 145 1221 l 169 1221 q 297 1145 267 1221 q 305 1061 305 1113 l 305 300 q 402 165 305 188 q 544 123 514 165 q 570 34 570 85 q 563 0 570 0 l 441 0 q 163 176 235 0 q 140 294 140 237 l 140 1216 l 145 1221 z "},"m":{"ha":1381,"x_min":139,"x_max":1245,"o":"m 412 848 l 461 846 l 508 846 q 694 766 608 846 q 905 848 777 848 q 1116 804 1064 848 q 1245 552 1245 715 l 1245 5 l 1240 0 l 1219 0 q 1096 72 1123 0 q 1085 132 1085 98 l 1085 524 q 1026 671 1085 635 q 943 688 1000 684 q 799 647 830 688 q 773 547 773 605 l 773 5 l 768 0 l 737 0 q 614 98 637 0 l 611 134 l 611 557 q 536 678 611 647 l 477 688 q 328 642 349 688 q 299 511 299 614 l 299 5 l 294 0 l 273 0 q 149 72 180 0 q 139 126 139 104 l 139 841 l 144 846 l 191 846 q 278 810 237 846 q 412 848 336 843 z "},"n":{"ha":978,"x_min":206,"x_max":840,"o":"m 260 848 l 266 848 q 346 812 317 848 q 491 848 402 848 l 566 848 q 806 711 719 848 q 840 572 840 639 l 840 5 l 835 0 l 811 0 q 682 93 705 0 l 680 117 l 680 530 q 620 673 680 648 q 506 690 578 690 q 369 551 369 690 l 369 5 l 364 0 l 330 0 q 206 114 206 14 l 206 841 q 260 848 206 848 z "},"o":{"ha":905,"x_min":137,"x_max":771,"o":"m 433 848 l 454 846 l 472 848 q 730 714 644 848 q 771 515 771 646 l 771 312 q 586 16 771 89 q 496 0 538 0 l 418 0 q 163 165 242 0 q 137 283 137 227 l 137 552 q 323 830 137 758 q 433 848 363 843 m 300 557 l 300 294 q 431 160 300 160 l 475 160 q 599 235 570 160 q 609 315 609 271 l 609 544 q 542 673 609 648 q 465 686 503 686 l 452 686 q 315 629 343 686 q 300 557 300 597 z "},"p":{"ha":888,"x_min":139,"x_max":750,"o":"m 144 847 l 159 847 q 273 807 240 847 q 410 847 327 847 l 417 847 q 629 805 581 847 q 708 723 675 772 q 750 578 740 667 l 748 562 l 748 298 q 624 72 748 153 q 454 29 551 29 l 296 29 l 296 -289 l 291 -294 l 251 -294 q 139 -177 153 -294 l 139 842 l 144 847 m 296 551 l 296 186 l 408 184 l 442 184 l 452 181 q 581 253 549 181 q 594 342 594 290 l 594 562 q 457 693 594 693 l 450 693 q 303 618 327 693 q 296 551 296 588 z "},"q":{"ha":880,"x_min":136,"x_max":748,"o":"m 438 852 q 621 814 535 852 q 703 849 653 849 l 743 849 l 748 844 l 748 -289 l 743 -294 l 701 -294 q 593 -204 614 -294 l 593 31 l 438 31 q 159 193 227 31 q 136 318 136 259 l 136 543 q 309 829 136 763 q 438 852 373 852 m 294 552 l 294 298 q 374 193 294 220 q 441 186 403 186 l 593 186 l 593 528 q 541 675 593 648 q 448 694 503 694 l 433 694 q 311 642 340 694 q 294 552 294 612 z "},"r":{"ha":637,"x_min":139,"x_max":505,"o":"m 144 848 l 152 848 q 273 807 236 848 q 420 846 333 846 l 498 846 q 505 830 505 843 l 505 804 q 376 681 505 699 q 315 614 315 649 q 299 503 302 606 l 299 5 l 294 0 l 258 0 q 142 87 169 0 l 139 109 l 139 843 l 144 848 z "},"s":{"ha":903,"x_min":137,"x_max":768,"o":"m 413 846 l 764 846 l 768 840 l 768 791 q 686 691 768 721 l 642 686 l 418 686 q 302 614 344 686 l 300 601 q 379 521 300 555 q 521 511 379 513 q 676 444 591 502 q 768 253 768 349 q 609 26 768 119 q 493 0 549 0 l 142 0 l 137 5 l 137 44 q 258 160 137 145 l 465 160 q 604 237 568 160 l 606 258 q 536 340 606 298 q 379 356 476 356 q 227 425 284 376 q 144 606 144 506 q 292 817 144 730 q 413 846 354 846 z "},"t":{"ha":694,"x_min":134,"x_max":557,"o":"m 142 1221 l 171 1221 q 294 1143 265 1221 l 300 1103 l 300 861 l 408 861 q 531 743 531 847 l 531 704 l 526 699 l 300 699 l 300 304 q 366 176 300 211 q 468 160 406 160 q 538 108 515 146 q 557 39 557 75 l 557 5 l 552 0 l 447 0 q 158 176 234 0 q 134 283 142 213 l 137 349 l 137 1216 l 142 1221 z "},"u":{"ha":911,"x_min":140,"x_max":773,"o":"m 145 848 l 194 848 q 298 766 268 848 q 302 732 302 754 l 302 298 q 442 160 302 160 l 445 160 q 613 282 613 160 l 613 843 l 618 848 l 662 848 q 773 734 759 848 l 773 5 l 768 0 l 740 0 q 639 41 674 0 q 471 0 577 0 l 455 0 q 158 184 222 0 q 140 295 140 240 l 140 843 l 145 848 z "},"v":{"ha":938,"x_min":137,"x_max":801,"o":"m 137 850 l 199 850 q 368 651 324 850 l 464 350 l 467 350 q 606 768 599 755 q 746 850 656 850 l 795 850 l 801 845 l 528 0 l 508 0 q 352 169 384 0 q 137 850 204 622 z "},"w":{"ha":1375,"x_min":136,"x_max":1242,"o":"m 1240 848 l 1242 846 l 1242 309 q 1005 5 1242 55 l 943 0 l 897 0 q 691 85 779 0 q 484 0 592 0 l 456 0 q 159 170 231 0 q 136 283 144 220 l 139 387 l 139 841 l 144 846 l 188 846 q 299 753 278 846 l 301 722 l 301 281 q 407 163 301 184 l 438 160 l 464 160 q 611 299 611 160 l 611 766 l 616 771 l 660 771 q 768 684 739 771 l 770 660 l 770 322 q 827 180 770 203 q 918 160 864 160 l 923 160 q 1082 296 1082 160 l 1082 732 q 1240 848 1082 848 z "},"x":{"ha":903,"x_min":136,"x_max":768,"o":"m 613 848 l 629 848 q 755 787 728 848 q 768 737 768 760 l 768 632 q 686 431 768 520 q 768 242 768 340 l 768 5 l 763 0 l 730 0 q 618 67 647 0 q 608 111 608 91 l 608 199 q 536 338 608 311 q 448 353 501 353 q 314 292 345 353 q 299 227 299 254 l 299 5 l 294 0 l 252 0 q 144 75 176 0 q 136 113 136 96 l 136 242 q 219 431 136 343 q 136 642 136 513 l 136 841 l 142 846 l 182 846 q 299 755 267 846 l 299 647 q 368 521 299 549 l 422 511 q 559 534 536 511 q 608 652 608 571 l 608 843 l 613 848 z "},"y":{"ha":880,"x_min":137,"x_max":749,"o":"m 597 849 l 612 849 q 734 789 706 849 q 749 709 749 762 l 749 18 q 660 -227 749 -160 q 483 -294 576 -294 l 244 -294 q 140 -204 166 -294 l 137 -182 l 137 -144 l 142 -139 l 456 -139 q 593 -18 593 -139 l 593 55 l 590 55 q 458 30 523 30 l 431 30 q 149 222 216 30 q 137 307 137 273 l 137 842 l 142 846 l 186 846 q 292 739 274 846 l 292 359 q 363 195 292 222 q 416 184 397 184 l 433 184 q 590 277 567 184 l 593 296 l 593 844 l 597 849 z "},"z":{"ha":905,"x_min":137,"x_max":771,"o":"m 142 846 l 652 846 q 768 753 741 846 l 771 730 q 351 160 771 651 l 642 160 q 764 80 735 160 q 768 46 768 68 l 768 5 l 764 0 l 253 0 q 137 116 137 12 l 137 132 l 562 686 l 276 686 q 144 761 173 686 q 137 802 137 777 l 137 840 l 142 846 z "},"{":{"ha":786,"x_min":136,"x_max":654,"o":"m 547 1221 l 648 1221 l 651 1219 l 654 1219 q 557 1052 654 1094 q 422 1004 460 1038 q 376 871 376 955 l 376 724 q 357 608 376 663 q 376 495 376 571 l 376 351 q 473 189 376 227 q 591 153 566 173 q 654 3 654 102 l 651 0 l 611 0 q 311 68 375 0 q 199 302 199 151 l 199 517 l 173 523 l 142 523 l 136 529 l 136 692 q 196 704 136 699 l 199 707 l 199 927 q 371 1190 199 1107 q 547 1221 439 1221 z "},"|":{"ha":751,"x_min":139,"x_max":303,"o":"m 144 1224 l 189 1224 q 298 1137 267 1224 l 303 1099 l 303 5 l 298 0 l 274 0 q 150 69 182 0 q 139 119 139 96 l 139 1219 l 144 1224 z "},"}":{"ha":789,"x_min":139,"x_max":654,"o":"m 139 1221 l 250 1221 q 572 1038 493 1221 q 591 941 591 984 l 591 707 l 654 696 l 654 529 l 648 523 l 617 523 q 591 512 595 523 l 591 274 q 512 94 591 184 q 201 0 431 0 l 139 0 l 139 3 q 238 172 139 135 q 354 206 308 181 q 416 387 416 246 l 416 475 l 413 500 q 436 611 413 562 q 413 721 422 628 l 416 741 l 416 834 q 351 1018 416 980 q 233 1052 322 1038 q 153 1128 184 1072 q 139 1221 139 1177 z "},"~":{"ha":751,"x_min":75,"x_max":677,"o":"m 677 629 l 677 471 q 592 404 634 422 q 509 386 550 386 q 373 419 466 386 q 242 452 280 452 q 174 434 210 452 q 75 343 138 416 l 75 501 q 160 569 118 551 q 242 588 202 588 q 380 554 288 588 q 509 521 473 521 q 577 539 541 521 q 677 629 614 557 z "},"¡":{"ha":456,"x_min":0,"x_max":0,"o":""},"¢":{"ha":772,"x_min":0,"x_max":0,"o":""},"£":{"ha":751,"x_min":54,"x_max":698,"o":"m 429 928 q 312 865 355 928 q 273 710 273 808 q 274 682 273 696 q 307 504 274 588 l 554 504 l 554 450 l 330 450 q 363 320 363 387 q 264 75 363 205 l 531 75 q 635 165 595 75 l 698 165 l 623 -7 l 79 -7 l 80 30 q 200 316 200 183 q 168 450 200 386 l 54 450 l 54 504 l 144 504 q 106 669 106 597 q 195 905 106 818 q 433 993 282 993 q 571 982 499 993 q 661 954 661 970 l 661 823 l 614 823 q 559 893 612 858 q 433 928 506 928 l 429 928 z "},"¤":{"ha":751,"x_min":92,"x_max":660,"o":"m 295 391 q 347 364 318 372 q 376 361 362 361 q 406 364 391 361 q 457 391 434 372 q 495 450 483 414 q 501 486 501 469 q 495 522 501 505 q 457 581 483 558 q 405 608 434 601 q 376 612 390 612 q 347 608 361 612 q 295 581 317 600 q 258 523 270 559 q 251 486 251 505 q 257 451 251 469 q 295 391 269 414 m 171 613 l 92 692 l 169 770 l 254 686 q 304 703 261 691 q 377 715 340 715 q 446 705 411 715 q 498 686 490 692 l 583 770 l 660 692 l 581 614 q 616 541 605 578 q 624 486 624 514 q 616 431 624 459 q 581 359 605 394 l 660 280 l 583 202 l 498 286 q 446 267 490 280 q 376 258 411 258 q 307 267 342 258 q 253 286 262 280 l 169 202 l 92 280 l 171 359 q 136 432 146 394 q 128 486 128 459 q 136 543 128 515 q 171 613 147 579 z "},"¥":{"ha":751,"x_min":-28,"x_max":779,"o":"m 473 373 l 473 197 q 541 47 473 47 l 595 47 l 595 0 l 155 0 l 155 47 l 210 47 q 277 197 277 47 l 277 373 l 122 373 l 122 427 l 277 427 l 277 470 l 264 495 l 122 495 l 122 549 l 237 549 l 96 828 q 7 926 39 926 l -28 926 l -28 972 l 330 972 l 330 926 l 296 926 q 260 901 260 926 q 298 808 260 869 l 418 551 l 534 814 q 566 897 566 867 q 530 926 566 926 l 498 926 l 498 972 l 779 972 l 779 926 l 755 926 q 644 823 702 926 l 512 549 l 629 549 l 629 495 l 486 495 l 473 469 l 473 427 l 629 427 l 629 373 l 473 373 z "},"¦":{"ha":751,"x_min":289,"x_max":463,"o":"m 289 252 l 463 252 l 463 -283 l 289 -283 l 289 252 m 289 972 l 463 972 l 463 437 l 289 437 l 289 972 z "},"§":{"ha":751,"x_min":121,"x_max":630,"o":"m 406 225 q 489 365 489 275 l 489 369 q 444 462 488 431 q 350 493 399 493 q 286 467 313 493 q 259 387 259 441 q 406 225 259 300 m 348 -230 q 448 -191 408 -227 q 496 -76 496 -149 q 289 111 496 12 q 163 208 199 158 q 127 324 127 258 q 188 480 127 420 q 308 542 239 530 q 162 644 203 588 q 121 766 121 700 q 183 926 121 862 q 366 990 245 989 q 513 977 457 990 q 570 947 570 964 l 570 811 l 517 811 q 473 904 514 875 q 353 935 433 933 q 280 909 307 935 q 253 829 253 884 q 440 647 253 736 q 586 546 547 599 q 624 422 624 494 q 555 236 624 311 q 481 188 520 206 q 595 99 561 146 q 630 -19 630 52 q 549 -208 630 -130 q 322 -286 467 -286 q 191 -273 247 -286 q 135 -243 135 -260 l 135 -107 l 194 -107 q 237 -199 197 -170 q 348 -230 277 -228 z "},"¨":{"ha":694,"x_min":155,"x_max":578,"o":"m 165 876 l 224 930 q 244 939 234 939 q 265 928 253 939 l 322 873 q 330 854 330 863 q 320 834 330 844 l 264 777 q 244 764 250 764 q 224 772 233 764 l 161 839 q 155 855 155 847 q 165 876 155 865 m 413 876 l 471 930 q 492 939 481 939 q 513 928 500 939 l 570 873 q 578 854 578 863 q 568 834 578 844 l 512 777 q 492 764 497 764 q 471 772 480 764 l 409 838 q 402 855 402 847 q 413 876 402 865 z "},"©":{"ha":1135,"x_min":64,"x_max":1072,"o":"m 780 315 l 826 315 l 826 246 q 772 192 826 221 q 604 162 718 163 q 411 210 496 162 q 283 334 325 258 q 241 488 241 410 q 284 642 241 565 q 413 765 326 718 q 595 812 499 812 q 670 803 640 812 q 713 794 701 794 q 724 813 724 794 l 767 813 l 818 673 l 774 673 q 670 753 703 738 q 585 769 636 769 q 464 700 534 766 q 393 497 393 633 q 456 295 393 385 q 604 205 519 205 q 731 233 684 205 q 780 315 779 260 m 570 991 q 767 950 673 991 q 932 836 861 909 q 1035 674 999 766 q 1072 487 1072 583 q 1035 300 1072 391 q 929 138 999 210 q 764 23 858 63 q 565 -16 671 -16 q 369 24 461 -16 q 205 139 277 64 q 99 300 135 210 q 64 487 64 389 q 99 674 64 584 q 203 836 135 765 q 368 950 273 909 q 570 991 463 991 m 245 809 q 150 667 186 752 q 113 487 113 583 q 150 307 113 391 q 254 158 186 223 q 400 64 321 96 q 566 33 479 33 q 734 64 654 33 q 880 157 814 96 q 985 307 947 222 q 1023 487 1023 392 q 985 667 1023 581 q 882 817 947 753 q 736 910 817 878 q 569 943 655 943 q 399 910 481 943 q 245 809 317 878 z "},"ª":{"ha":439,"x_min":0,"x_max":0,"o":""},"«":{"ha":669,"x_min":118,"x_max":601,"o":"m 118 325 l 357 537 l 390 537 l 390 505 l 251 325 l 390 144 l 390 113 l 357 113 l 118 325 m 329 325 l 568 537 l 601 537 l 601 505 l 462 325 l 601 144 l 601 113 l 568 113 l 329 325 z "},"¬":{"ha":751,"x_min":58,"x_max":680,"o":"m 58 524 l 680 524 l 680 183 l 679 182 l 561 182 l 561 448 l 58 448 l 58 524 z "},"®":{"ha":1135,"x_min":64,"x_max":1072,"o":"m 500 749 l 500 483 q 516 425 500 436 q 549 413 532 413 l 551 413 q 581 434 570 414 q 605 501 593 454 q 614 576 614 538 q 613 599 614 587 q 593 690 610 649 q 561 741 576 732 q 531 749 545 749 l 500 749 m 663 389 l 705 321 q 820 226 770 226 l 835 226 l 835 184 l 586 184 l 586 226 l 600 226 q 609 235 609 226 q 564 319 609 255 l 540 359 q 500 371 519 360 l 500 311 q 536 226 500 226 l 550 226 l 550 184 l 300 184 l 300 226 l 314 226 q 350 311 350 226 l 350 664 q 351 749 350 749 l 313 749 l 313 791 l 564 791 q 673 755 623 790 q 738 679 717 726 q 758 584 758 632 q 738 491 758 537 q 663 389 718 445 m 570 991 q 767 950 673 991 q 932 836 861 909 q 1035 674 999 766 q 1072 487 1072 583 q 1035 300 1072 391 q 929 138 999 210 q 764 23 858 63 q 565 -16 671 -16 q 369 24 461 -16 q 205 139 277 64 q 99 300 135 210 q 64 487 64 389 q 99 674 64 584 q 203 836 135 765 q 368 950 273 909 q 570 991 463 991 m 245 809 q 150 667 186 752 q 113 487 113 583 q 150 307 113 391 q 254 158 186 223 q 400 64 321 96 q 566 33 479 33 q 734 64 654 33 q 880 157 814 96 q 985 307 947 222 q 1023 487 1023 392 q 985 667 1023 581 q 882 817 947 753 q 736 910 817 878 q 569 943 655 943 q 399 910 481 943 q 245 809 317 878 z "},"¯":{"ha":454,"x_min":0,"x_max":0,"o":""},"°":{"ha":490,"x_min":41,"x_max":450,"o":"m 364 772 q 326 860 364 828 q 246 891 288 891 q 165 860 204 891 q 127 772 127 828 q 165 686 127 718 q 246 654 204 654 q 326 686 288 654 q 364 772 364 718 m 245 977 q 393 914 336 977 q 450 772 450 850 q 393 631 450 694 q 244 568 335 568 q 97 630 153 568 q 41 772 41 692 q 98 915 41 852 q 245 977 155 977 z "},"±":{"ha":688,"x_min":0,"x_max":0,"o":""},"²":{"ha":688,"x_min":0,"x_max":0,"o":""},"³":{"ha":688,"x_min":0,"x_max":0,"o":""},"´":{"ha":694,"x_min":151,"x_max":470,"o":"m 327 926 q 372 963 353 951 q 418 974 392 974 q 457 959 444 974 q 470 923 470 943 q 456 880 470 893 q 418 851 441 866 l 208 731 l 151 731 l 327 926 z "},"µ":{"ha":800,"x_min":0,"x_max":0,"o":""},"¶":{"ha":751,"x_min":66,"x_max":685,"o":"m 685 977 l 685 922 l 599 922 l 599 -4 l 519 -4 l 519 922 l 431 922 l 431 -4 l 322 -4 l 322 471 q 140 550 213 475 q 66 723 66 625 q 144 908 66 838 q 359 977 222 977 l 685 977 z "},"·":{"ha":375,"x_min":100,"x_max":276,"o":"m 100 486 q 125 549 100 523 q 188 574 151 574 q 250 549 224 574 q 276 486 276 523 q 250 424 276 450 q 188 398 224 398 q 125 424 151 398 q 100 486 100 450 z "},"¸":{"ha":724,"x_min":241,"x_max":547,"o":"m 241 -174 q 359 -222 319 -222 q 412 -211 396 -222 q 427 -170 427 -199 q 399 -131 427 -142 q 336 -123 379 -123 q 300 -125 320 -123 l 336 0 l 409 0 l 385 -59 q 408 -58 387 -58 q 511 -88 475 -58 q 547 -169 547 -119 q 504 -255 547 -222 q 384 -288 460 -288 q 241 -262 306 -288 l 241 -174 z "},"¹":{"ha":688,"x_min":0,"x_max":0,"o":""},"º":{"ha":487,"x_min":0,"x_max":0,"o":""},"»":{"ha":669,"x_min":68,"x_max":551,"o":"m 312 113 l 279 113 l 279 144 l 418 325 l 279 505 l 279 537 l 312 537 l 551 325 l 312 113 m 101 113 l 68 113 l 68 144 l 208 325 l 68 505 l 68 537 l 101 537 l 340 325 l 101 113 z "},"¼":{"ha":1158,"x_min":0,"x_max":0,"o":""},"½":{"ha":1332,"x_min":0,"x_max":0,"o":""},"¾":{"ha":1158,"x_min":0,"x_max":0,"o":""},"¿":{"ha":507,"x_min":0,"x_max":0,"o":""},"À":{"ha":1044,"x_min":0,"x_max":0,"o":""},"Á":{"ha":1044,"x_min":0,"x_max":0,"o":""},"Â":{"ha":1044,"x_min":0,"x_max":0,"o":""},"Ã":{"ha":1044,"x_min":0,"x_max":0,"o":""},"Ä":{"ha":1044,"x_min":0,"x_max":0,"o":""},"Å":{"ha":1044,"x_min":0,"x_max":0,"o":""},"Æ":{"ha":1436,"x_min":0,"x_max":0,"o":""},"Ç":{"ha":949,"x_min":0,"x_max":0,"o":""},"È":{"ha":781,"x_min":0,"x_max":0,"o":""},"É":{"ha":781,"x_min":0,"x_max":0,"o":""},"Ê":{"ha":781,"x_min":0,"x_max":0,"o":""},"Ë":{"ha":781,"x_min":0,"x_max":0,"o":""},"Ì":{"ha":446,"x_min":0,"x_max":0,"o":""},"Í":{"ha":446,"x_min":0,"x_max":0,"o":""},"Î":{"ha":446,"x_min":0,"x_max":0,"o":""},"Ï":{"ha":446,"x_min":0,"x_max":0,"o":""},"Ð":{"ha":1029,"x_min":0,"x_max":0,"o":""},"Ñ":{"ha":1054,"x_min":0,"x_max":0,"o":""},"Ò":{"ha":1095,"x_min":0,"x_max":0,"o":""},"Ó":{"ha":1095,"x_min":0,"x_max":0,"o":""},"Ô":{"ha":1095,"x_min":0,"x_max":0,"o":""},"Õ":{"ha":1095,"x_min":0,"x_max":0,"o":""},"Ö":{"ha":1095,"x_min":0,"x_max":0,"o":""},"×":{"ha":751,"x_min":116,"x_max":635,"o":"m 376 410 l 193 227 l 116 303 l 299 486 l 116 669 l 193 746 l 376 563 l 559 746 l 635 669 l 452 486 l 635 303 l 559 227 l 376 410 z "},"Ø":{"ha":1095,"x_min":0,"x_max":0,"o":""},"Ù":{"ha":1018,"x_min":0,"x_max":0,"o":""},"Ú":{"ha":1018,"x_min":0,"x_max":0,"o":""},"Û":{"ha":1018,"x_min":0,"x_max":0,"o":""},"Ü":{"ha":1018,"x_min":0,"x_max":0,"o":""},"Ý":{"ha":836,"x_min":0,"x_max":0,"o":""},"Þ":{"ha":760,"x_min":0,"x_max":0,"o":""},"ß":{"ha":848,"x_min":0,"x_max":0,"o":""},"à":{"ha":625,"x_min":0,"x_max":0,"o":""},"á":{"ha":625,"x_min":0,"x_max":0,"o":""},"â":{"ha":625,"x_min":0,"x_max":0,"o":""},"ã":{"ha":625,"x_min":0,"x_max":0,"o":""},"ä":{"ha":625,"x_min":0,"x_max":0,"o":""},"å":{"ha":625,"x_min":0,"x_max":0,"o":""},"æ":{"ha":986,"x_min":0,"x_max":0,"o":""},"ç":{"ha":614,"x_min":0,"x_max":0,"o":""},"è":{"ha":616,"x_min":0,"x_max":0,"o":""},"é":{"ha":616,"x_min":0,"x_max":0,"o":""},"ê":{"ha":616,"x_min":0,"x_max":0,"o":""},"ë":{"ha":616,"x_min":0,"x_max":0,"o":""},"ì":{"ha":349,"x_min":0,"x_max":0,"o":""},"í":{"ha":349,"x_min":0,"x_max":0,"o":""},"î":{"ha":349,"x_min":0,"x_max":0,"o":""},"ï":{"ha":349,"x_min":0,"x_max":0,"o":""},"ð":{"ha":772,"x_min":0,"x_max":0,"o":""},"ñ":{"ha":751,"x_min":0,"x_max":0,"o":""},"ò":{"ha":685,"x_min":0,"x_max":0,"o":""},"ó":{"ha":685,"x_min":0,"x_max":0,"o":""},"ô":{"ha":685,"x_min":0,"x_max":0,"o":""},"õ":{"ha":685,"x_min":0,"x_max":0,"o":""},"ö":{"ha":685,"x_min":0,"x_max":0,"o":""},"÷":{"ha":751,"x_min":54,"x_max":697,"o":"m 54 432 l 54 541 l 697 541 l 697 432 l 54 432 m 290 274 l 355 334 q 378 345 367 345 q 401 333 387 345 l 464 271 q 473 250 473 260 q 462 229 473 240 l 400 165 q 378 151 384 151 q 355 161 365 151 l 286 233 q 279 252 279 243 q 290 274 279 262 m 290 739 l 355 800 q 378 810 367 810 q 401 798 387 810 l 464 736 q 473 715 473 725 q 462 694 473 705 l 400 630 q 378 616 384 616 q 355 626 365 616 l 286 699 q 279 717 279 708 q 290 739 279 728 z "},"ø":{"ha":685,"x_min":0,"x_max":0,"o":""},"ù":{"ha":718,"x_min":0,"x_max":0,"o":""},"ú":{"ha":718,"x_min":0,"x_max":0,"o":""},"û":{"ha":718,"x_min":0,"x_max":0,"o":""},"ü":{"ha":718,"x_min":0,"x_max":0,"o":""},"ý":{"ha":589,"x_min":0,"x_max":0,"o":""},"þ":{"ha":685,"x_min":0,"x_max":0,"o":""},"ÿ":{"ha":589,"x_min":0,"x_max":0,"o":""},"ı":{"ha":414,"x_min":20,"x_max":393,"o":"m 294 153 q 330 41 294 41 l 393 41 l 393 0 l 28 0 l 28 41 l 92 41 q 127 153 127 41 l 127 443 q 85 490 127 490 l 20 490 l 20 520 q 213 650 171 568 l 294 650 l 294 153 z "},"ˆ":{"ha":612,"x_min":75,"x_max":509,"o":"m 75 732 l 241 975 l 342 975 l 509 732 l 441 732 l 292 865 l 142 732 l 75 732 z "},"ˇ":{"ha":733,"x_min":150,"x_max":583,"o":"m 150 975 l 217 975 l 367 844 l 516 975 l 583 975 l 417 732 l 316 732 l 150 975 z "},"ˉ":{"ha":724,"x_min":172,"x_max":552,"o":"m 172 804 l 172 902 l 552 902 l 552 804 l 172 804 z "},"˘":{"ha":726,"x_min":149,"x_max":576,"o":"m 149 928 l 212 928 q 260 853 225 874 q 363 833 295 833 q 466 853 431 833 q 513 928 500 873 l 576 928 q 508 781 562 831 q 363 732 455 732 q 218 782 273 732 q 149 928 164 831 z "},"˙":{"ha":724,"x_min":283,"x_max":459,"o":"m 294 876 l 341 925 q 355 934 347 930 q 373 938 363 938 q 390 934 382 938 q 404 924 397 930 l 451 873 q 457 865 456 870 q 459 855 459 861 q 457 845 458 849 q 450 835 456 840 l 402 783 q 387 771 393 774 q 373 768 381 768 q 354 771 362 768 q 340 781 345 774 l 290 839 q 285 847 286 843 q 283 857 283 851 q 286 866 283 861 q 294 876 288 871 z "},"˚":{"ha":724,"x_min":227,"x_max":498,"o":"m 295 864 q 316 815 295 833 q 361 797 336 797 q 407 815 387 797 q 428 864 428 833 q 407 911 428 893 q 361 930 386 930 q 316 911 337 930 q 295 864 295 893 m 227 864 q 265 956 227 917 q 361 996 302 996 q 460 956 422 996 q 498 864 498 916 q 460 771 498 810 q 361 732 422 732 q 265 771 302 732 q 227 864 227 810 z "},"˛":{"ha":725,"x_min":255,"x_max":535,"o":"m 473 0 q 391 -77 414 -44 q 367 -148 367 -111 q 382 -195 367 -180 q 420 -211 397 -211 q 514 -168 470 -211 l 535 -184 q 468 -256 509 -231 q 377 -281 427 -281 q 289 -254 322 -281 q 255 -189 255 -227 q 295 -86 255 -137 q 410 0 334 -35 l 473 0 z "},"˜":{"ha":727,"x_min":159,"x_max":581,"o":"m 581 944 q 530 829 566 867 q 432 791 494 791 q 337 807 385 791 q 255 823 290 823 q 225 812 237 823 q 204 761 214 802 l 159 761 q 209 879 173 840 q 309 918 245 918 q 398 901 351 917 q 481 886 446 886 q 512 897 500 886 q 535 944 524 907 l 581 944 z "},"˝":{"ha":728,"x_min":159,"x_max":591,"o":"m 159 732 l 260 916 q 294 960 277 945 q 337 975 312 975 q 381 959 365 975 q 398 924 398 943 q 391 902 398 914 q 369 874 383 889 l 225 732 l 159 732 m 352 732 l 453 916 q 488 960 470 945 q 530 975 505 975 q 575 959 558 975 q 591 924 591 943 q 584 902 591 914 q 562 874 576 889 l 418 732 l 352 732 z "},"–":{"ha":751,"x_min":38,"x_max":713,"o":"m 38 271 l 38 379 l 713 379 l 713 271 l 38 271 z "},"—":{"ha":1389,"x_min":0,"x_max":1389,"o":"m 0 271 l 0 379 l 1389 379 l 1389 271 l 0 271 z "},"‘":{"ha":424,"x_min":156,"x_max":359,"o":"m 272 682 q 189 730 221 682 q 156 836 156 778 q 206 993 156 909 q 331 1076 256 1076 l 331 1039 q 272 911 281 1010 q 359 805 272 833 l 359 774 l 272 682 z "},"’":{"ha":424,"x_min":64,"x_max":268,"o":"m 152 1076 q 235 1028 203 1076 q 268 922 268 981 q 218 766 268 849 q 93 682 168 682 l 93 720 q 152 847 142 749 q 64 954 152 925 l 64 985 l 152 1076 z "},"‚":{"ha":424,"x_min":149,"x_max":352,"o":"m 236 182 q 319 134 287 182 q 352 28 352 86 q 302 -129 352 -45 q 177 -212 252 -212 l 177 -175 q 236 -47 227 -146 q 149 59 236 31 l 149 90 l 236 182 z "},"“":{"ha":668,"x_min":156,"x_max":604,"o":"m 272 682 q 189 730 221 682 q 156 836 156 778 q 206 993 156 909 q 331 1076 256 1076 l 331 1039 q 272 911 281 1010 q 359 805 272 833 l 359 774 l 272 682 m 516 682 q 433 730 465 682 q 400 836 400 778 q 450 993 400 909 q 575 1076 500 1076 l 575 1039 q 516 911 526 1010 q 604 805 516 833 l 604 774 l 516 682 z "},"”":{"ha":668,"x_min":64,"x_max":512,"o":"m 396 1076 q 479 1028 447 1076 q 512 922 512 981 q 462 766 512 849 q 337 682 412 682 l 337 720 q 396 847 387 749 q 309 954 396 925 l 309 985 l 396 1076 m 152 1076 q 235 1028 203 1076 q 268 922 268 981 q 218 766 268 849 q 93 682 168 682 l 93 720 q 152 847 142 749 q 64 954 152 925 l 64 985 l 152 1076 z "},"„":{"ha":668,"x_min":149,"x_max":596,"o":"m 480 181 q 564 133 531 181 q 596 27 596 85 q 546 -129 596 -45 q 421 -212 496 -212 l 421 -175 q 480 -47 471 -146 q 393 58 480 30 l 393 90 l 480 181 m 236 182 q 319 134 287 182 q 352 28 352 86 q 302 -129 352 -45 q 177 -212 252 -212 l 177 -175 q 236 -47 227 -146 q 149 59 236 31 l 149 90 l 236 182 z "},"†":{"ha":751,"x_min":49,"x_max":699,"o":"m 353 -182 q 322 199 346 68 q 273 435 299 329 q 353 633 320 480 q 216 597 264 633 q 138 561 168 561 q 75 585 100 561 q 49 654 49 609 q 74 725 49 701 q 136 749 99 749 q 219 712 171 749 q 353 676 267 676 q 308 814 334 765 q 281 893 281 863 q 305 956 281 930 q 374 982 329 982 q 443 956 418 982 q 467 893 467 930 q 440 814 467 863 q 394 676 413 765 q 528 712 480 676 q 611 749 576 749 q 673 725 648 749 q 699 654 699 701 q 673 585 699 609 q 610 561 647 561 q 532 597 580 561 q 394 633 484 633 q 474 435 427 480 q 425 199 448 329 q 395 -181 401 68 l 353 -182 z "},"‡":{"ha":751,"x_min":49,"x_max":699,"o":"m 394 167 q 532 203 484 167 q 610 239 580 239 q 673 215 647 239 q 699 146 699 191 q 673 75 699 99 q 611 52 648 52 q 528 88 576 52 q 394 124 480 124 q 440 -14 413 35 q 467 -93 467 -63 q 443 -156 467 -130 q 374 -182 418 -182 q 305 -156 329 -182 q 281 -93 281 -130 q 308 -14 281 -63 q 353 124 334 35 q 219 88 267 124 q 136 52 171 52 q 74 75 99 52 q 49 146 49 99 q 75 215 49 191 q 138 239 100 239 q 216 203 168 239 q 353 167 264 167 q 273 400 320 320 q 353 633 320 480 q 216 597 264 633 q 138 561 168 561 q 75 585 100 561 q 49 654 49 609 q 74 725 49 701 q 136 749 99 749 q 219 712 171 749 q 353 676 267 676 q 308 814 334 765 q 281 893 281 863 q 305 956 281 930 q 374 982 329 982 q 443 956 418 982 q 467 893 467 930 q 440 814 467 863 q 394 676 413 765 q 528 712 480 676 q 611 749 576 749 q 673 725 648 749 q 699 654 699 701 q 673 585 699 609 q 610 561 647 561 q 532 597 580 561 q 394 633 484 633 q 474 400 427 480 q 394 167 427 320 z "},"•":{"ha":751,"x_min":149,"x_max":602,"o":"m 149 487 q 213 644 149 574 q 376 713 276 713 q 539 643 476 713 q 602 487 602 573 q 538 330 602 401 q 375 260 475 260 q 212 330 275 260 q 149 487 149 400 z "},"…":{"ha":1389,"x_min":174,"x_max":1295,"o":"m 186 120 l 250 180 q 273 191 262 191 q 296 179 283 191 l 359 117 q 368 96 368 106 q 357 75 368 86 l 296 11 q 273 -3 279 -3 q 250 7 260 -3 l 182 79 q 174 98 174 89 q 186 120 174 109 m 648 120 l 713 180 q 736 191 725 191 q 759 179 745 191 l 822 117 q 831 96 831 106 q 820 75 831 86 l 758 11 q 736 -3 742 -3 q 713 7 723 -3 l 644 79 q 637 98 637 89 q 648 120 637 109 m 1112 120 l 1177 180 q 1200 191 1189 191 q 1223 179 1209 191 l 1286 117 q 1295 96 1295 106 q 1284 75 1295 86 l 1222 11 q 1200 -3 1206 -3 q 1177 7 1187 -3 l 1108 79 q 1101 98 1101 89 q 1112 120 1101 109 z "},"‹":{"ha":458,"x_min":118,"x_max":390,"o":"m 118 325 l 357 537 l 390 537 l 390 505 l 251 325 l 390 144 l 390 113 l 357 113 l 118 325 z "},"›":{"ha":458,"x_min":68,"x_max":340,"o":"m 101 113 l 68 113 l 68 144 l 208 325 l 68 505 l 68 537 l 101 537 l 340 325 l 101 113 z "},"⁄":{"ha":232,"x_min":-130,"x_max":361,"o":"m -130 -14 l 304 986 l 361 986 l -72 -14 l -130 -14 z "},"₣":{"ha":751,"x_min":20,"x_max":735,"o":"m 127 308 l 127 775 q 53 926 127 926 l 20 926 l 20 972 l 660 972 l 735 804 l 659 804 q 569 926 619 926 l 397 926 q 323 775 323 926 l 323 526 l 566 526 q 604 562 604 526 l 604 608 l 670 608 l 670 365 l 604 365 l 604 413 q 566 447 604 447 l 323 447 l 323 308 l 450 308 l 450 227 l 323 227 l 323 197 q 397 47 323 47 l 458 47 l 458 0 l 20 0 l 20 47 l 53 47 q 127 197 127 47 l 127 227 l 20 227 l 20 308 l 127 308 z "},"₤":{"ha":751,"x_min":49,"x_max":703,"o":"m 437 928 l 434 928 q 317 865 359 928 q 278 710 278 808 q 279 682 278 696 q 296 564 279 631 l 549 564 l 549 510 l 313 510 q 336 449 323 481 l 572 449 l 572 395 l 357 395 q 368 320 368 358 q 269 75 368 205 l 536 75 q 640 165 600 75 l 703 165 l 627 -7 l 84 -7 l 85 30 q 205 316 205 183 q 194 395 205 356 l 72 395 l 72 449 l 173 449 l 172 450 l 173 450 q 149 510 159 481 l 49 510 l 49 564 l 130 564 q 111 669 111 629 q 200 905 111 818 q 432 993 289 993 l 437 993 q 576 982 504 993 q 665 954 665 970 l 665 823 l 618 823 q 564 893 616 858 q 437 928 511 928 z "},"₧":{"ha":1503,"x_min":60,"x_max":1461,"o":"m 346 926 l 346 487 q 388 382 346 416 q 449 353 422 353 l 452 353 q 502 394 471 356 q 551 509 533 433 q 565 636 565 571 q 564 668 565 652 q 533 820 559 751 q 477 907 507 888 q 425 926 448 926 l 346 926 m 1056 -3 q 989 -9 1026 -9 q 841 34 883 -9 q 800 151 800 77 l 800 610 l 730 610 q 702 492 725 550 q 606 367 671 417 q 460 317 541 317 q 346 363 376 317 l 346 197 q 406 47 346 47 l 479 47 l 479 0 l 60 0 l 60 47 l 121 47 q 169 197 169 47 l 169 775 q 121 926 169 926 l 60 926 l 60 972 l 465 972 q 605 924 541 972 q 701 800 669 875 q 732 650 730 726 l 753 650 q 894 887 867 650 l 966 887 l 966 650 l 1154 650 q 1238 663 1191 662 l 1240 663 q 1356 651 1295 663 q 1417 627 1417 640 l 1417 517 l 1371 517 q 1323 594 1354 572 q 1234 617 1293 617 q 1182 598 1206 617 q 1158 532 1158 579 q 1308 385 1158 455 q 1430 302 1398 345 q 1461 205 1461 260 q 1393 55 1461 118 q 1219 -8 1324 -8 q 1138 2 1183 -8 q 1103 -35 1113 0 l 1067 -34 l 1056 -3 m 966 609 l 966 151 q 988 69 966 90 q 1036 50 1004 54 l 986 184 l 1046 184 q 1215 38 1102 38 q 1295 68 1261 38 q 1329 159 1329 98 q 1162 312 1329 233 q 1057 391 1086 351 q 1027 481 1027 431 q 1081 609 1027 556 l 966 609 z "},"€":{"ha":751,"x_min":-30,"x_max":774,"o":"m 61 578 q 107 726 74 652 q 269 916 161 845 q 494 986 376 986 q 591 972 558 986 q 630 958 624 958 q 644 987 644 958 l 701 987 l 762 785 l 701 785 q 598 906 663 876 q 465 937 533 937 q 290 800 363 931 q 222 578 237 704 l 610 578 l 598 524 l 218 524 q 217 484 217 504 l 587 484 l 576 429 l 219 429 q 308 170 231 288 q 505 28 398 28 l 506 28 q 656 77 594 29 q 720 202 718 124 l 774 202 l 774 103 q 710 24 774 65 q 506 -20 646 -18 q 266 52 373 -20 q 106 241 159 123 q 56 429 64 334 l -30 429 l -18 484 l 53 484 q 54 524 53 504 l -7 524 l 5 578 l 61 578 z "},"№":{"ha":1540,"x_min":0,"x_max":0,"o":""},"™":{"ha":1015,"x_min":0,"x_max":0,"o":""},"∂":{"ha":751,"x_min":49,"x_max":703,"o":"m 228 311 q 270 154 237 227 q 343 49 303 81 q 401 21 378 21 l 406 21 q 466 61 432 23 q 516 177 500 99 q 527 281 527 228 q 524 340 527 311 q 481 498 514 424 q 408 603 448 572 q 347 630 372 630 l 344 630 q 287 591 321 629 q 235 475 253 553 q 224 366 224 416 q 228 311 224 336 m 703 326 q 665 162 703 241 q 548 33 627 83 q 376 -16 469 -16 q 204 33 283 -16 q 87 162 125 83 q 49 326 49 241 q 88 489 49 410 q 206 618 127 569 q 376 667 286 667 q 511 628 482 667 q 368 843 463 753 q 141 942 273 932 l 141 989 q 556 793 410 989 q 703 326 703 596 z "},"∆":{"ha":838,"x_min":4,"x_max":798,"o":"m 406 997 l 798 0 l 4 0 l 406 997 m 104 69 l 597 69 l 354 690 l 104 69 z "},"∏":{"ha":1135,"x_min":66,"x_max":1088,"o":"m 437 926 q 370 774 370 926 l 370 -85 q 437 -237 370 -237 l 505 -237 l 505 -285 l 66 -285 l 66 -237 l 134 -237 q 201 -85 201 -237 l 201 774 q 134 926 201 926 l 66 926 l 66 972 l 1088 972 l 1088 926 l 1019 926 q 953 774 953 926 l 953 -85 q 1020 -237 953 -237 l 1088 -237 l 1088 -284 l 648 -284 l 648 -237 l 716 -237 q 783 -85 783 -237 l 783 774 q 716 926 783 926 l 437 926 z "},"∑":{"ha":871,"x_min":76,"x_max":831,"o":"m 720 433 l 199 -238 l 665 -238 q 768 -149 728 -238 l 831 -149 l 756 -285 l 76 -285 l 76 -238 q 155 -202 127 -238 l 570 334 l 155 888 q 76 925 127 925 l 76 972 l 756 972 l 831 836 l 768 836 q 665 925 728 925 l 349 925 l 720 433 z "},"−":{"ha":751,"x_min":54,"x_max":697,"o":"m 54 432 l 54 541 l 697 541 l 697 432 l 54 432 z "},"√":{"ha":751,"x_min":110,"x_max":810,"o":"m 235 -18 l 110 275 l 206 307 l 258 191 l 698 1125 l 810 1125 l 810 1071 l 747 1071 l 235 -18 z "},"∞":{"ha":751,"x_min":39,"x_max":712,"o":"m 318 514 q 267 578 311 559 q 204 593 234 593 q 186 592 195 593 q 116 562 149 585 q 71 511 84 538 q 59 469 59 487 l 59 465 q 76 421 60 444 q 127 387 92 398 q 174 378 150 378 q 200 380 187 378 q 268 410 237 389 q 318 514 298 431 m 349 463 q 414 385 355 422 q 506 353 463 353 q 524 355 515 353 q 613 391 572 363 q 672 452 654 418 q 689 509 689 484 l 689 513 q 666 569 688 540 q 600 612 644 597 q 540 621 570 621 q 507 618 524 621 q 412 576 455 611 q 349 463 368 542 m 332 585 q 347 627 336 600 q 420 725 374 691 q 515 758 467 758 q 609 725 563 758 q 684 627 655 692 q 712 486 712 562 q 684 346 712 412 q 609 247 655 280 q 515 214 563 214 q 420 248 467 214 q 347 346 374 281 q 332 389 336 372 q 323 366 330 381 q 266 283 302 311 q 193 256 230 256 q 120 284 157 256 q 61 368 83 312 q 39 486 39 424 q 61 604 39 548 q 120 689 83 661 q 193 717 157 717 q 266 689 230 717 q 323 608 302 661 q 332 585 331 591 z "},"∫":{"ha":460,"x_min":-35,"x_max":556,"o":"m 31 -194 q -35 -170 -35 -194 l -35 -58 l 13 -58 q 30 -106 14 -96 q 81 -117 46 -117 q 141 -10 126 -117 q 161 201 155 96 l 208 699 l 214 741 q 307 1034 231 899 q 490 1168 383 1168 q 556 1144 556 1168 l 556 1032 l 507 1032 q 490 1080 507 1069 q 439 1090 473 1090 q 379 988 401 1090 q 353 743 356 886 l 304 224 q 213 -62 290 71 q 31 -194 136 -194 z "},"≈":{"ha":751,"x_min":75,"x_max":677,"o":"m 677 748 l 677 590 q 592 523 634 541 q 509 505 550 505 q 373 537 466 505 q 242 570 280 570 q 174 552 210 570 q 75 462 138 534 l 75 620 q 160 688 118 669 q 242 707 202 707 q 380 673 288 707 q 509 640 473 640 q 577 657 541 640 q 677 748 614 675 m 677 512 l 677 354 q 592 287 634 304 q 509 269 550 269 q 373 301 466 269 q 242 334 280 334 q 174 316 210 334 q 75 226 138 298 l 75 384 q 160 452 118 433 q 242 471 202 471 q 380 437 288 471 q 509 404 473 404 q 577 421 541 404 q 677 512 614 439 z "},"≤":{"ha":751,"x_min":54,"x_max":697,"o":"m 697 723 l 265 486 l 697 250 l 697 111 l 54 464 l 54 508 l 697 863 l 697 723 m 54 1 l 54 109 l 697 109 l 697 1 l 54 1 z "},"≥":{"ha":751,"x_min":54,"x_max":697,"o":"m 54 863 l 697 507 l 697 463 l 54 110 l 54 250 l 486 485 l 54 722 l 54 863 m 54 1 l 54 109 l 697 109 l 697 1 l 54 1 z "},"":{"ha":1067,"x_min":140,"x_max":933,"o":"m 424 1222 l 568 1222 l 573 1217 l 573 1172 q 450 1059 573 1082 q 319 994 352 1059 q 305 915 305 954 l 305 786 l 521 786 l 526 781 l 526 747 q 405 623 513 623 l 305 623 l 305 5 l 300 0 l 253 0 q 145 87 177 0 l 140 134 l 140 888 q 311 1198 140 1126 q 424 1222 370 1222 m 776 1224 l 819 1224 q 930 1137 903 1224 l 933 1113 l 933 994 l 928 989 l 912 989 q 770 1121 770 989 l 770 1219 l 776 1224 m 776 848 l 809 848 q 925 774 897 848 q 933 720 933 747 l 933 5 l 928 0 l 905 0 q 781 73 809 0 q 770 132 770 96 l 770 844 l 776 848 z "},"":{"ha":1338,"x_min":140,"x_max":1204,"o":"m 423 1221 l 568 1221 l 573 1216 l 573 1171 q 450 1059 573 1081 q 318 993 352 1059 q 305 914 305 953 l 305 785 l 521 785 l 526 780 l 526 746 q 405 623 513 623 l 305 623 l 305 5 l 300 0 l 253 0 q 145 87 177 0 l 140 134 l 140 888 q 311 1198 140 1126 q 423 1221 370 1221 m 779 1221 l 803 1221 q 931 1145 901 1221 q 939 1061 939 1113 l 939 300 q 1036 165 939 188 q 1178 123 1148 165 q 1204 34 1204 85 q 1197 0 1204 0 l 1076 0 q 798 176 869 0 q 774 294 774 237 l 774 1216 l 779 1221 z "}}}
